<svg width="122" height="36" viewBox="0 0 122 36" fill="none" xmlns="http://www.w3.org/2000/svg">
<path fill-rule="evenodd" clip-rule="evenodd" d="M18 0C8.07699 0 0 8.07699 0 18C0 27.923 8.07699 36 18 36C27.923 36 36 27.923 36 18C36 8.07699 27.923 0 18 0ZM18 33.2282C9.59039 33.2282 2.77179 26.4096 2.77179 18C2.77179 9.59039 9.59039 2.77179 18 2.77179C26.4096 2.77179 33.2282 9.59039 33.2282 18C33.2282 26.4096 26.4096 33.2282 18 33.2282ZM28.8055 11.4644L28.8055 11.4644C28.7722 11.4367 28.739 11.409 28.7002 11.3813C28.3786 11.1817 28.0516 11.0043 27.6912 10.8824C27.4861 10.8158 27.281 10.8158 27.0704 10.8824C26.7765 10.9766 26.4827 11.0819 26.2111 11.2261C26.0781 11.2981 25.9838 11.2704 25.9007 11.1485C25.6346 10.7604 25.3075 10.4389 24.925 10.1617C24.7143 10.0065 24.7143 9.99539 24.8418 9.75701C24.974 9.5131 25.0595 9.25522 25.1454 8.99617L25.1689 8.92548C25.2133 8.79797 25.2465 8.67047 25.2077 8.53743C25.0691 8.07731 24.8585 7.656 24.5924 7.25686C24.5536 7.20142 24.5037 7.15153 24.4261 7.19034C24.3595 7.22914 24.3429 7.29566 24.3651 7.36219C24.3984 7.45643 24.4427 7.54513 24.4926 7.63382C24.5342 7.71697 24.5785 7.80012 24.6229 7.88326C24.6672 7.96642 24.7116 8.04958 24.7531 8.13274C25.0294 8.6801 24.8057 9.14902 24.5798 9.62249L24.5369 9.71266C24.4477 9.69141 24.4236 9.6408 24.4022 9.59586C24.3957 9.5822 24.3895 9.56907 24.3817 9.55744C24.0491 9.06406 23.3672 9.06961 23.0679 9.57962C22.9847 9.71821 22.8794 9.81799 22.7408 9.8956C22.4304 10.0619 22.2419 10.3225 22.1532 10.6606C22.0479 11.0376 22.0922 11.4035 22.1754 11.7749C22.1804 11.7966 22.1899 11.8178 22.1995 11.839C22.2215 11.8881 22.2435 11.9369 22.2086 11.9911C22.1997 11.9933 22.1908 11.9982 22.1822 12.003C22.1695 12.01 22.1576 12.0166 22.1477 12.0132C21.7818 11.8913 21.4104 11.8802 21.0389 11.9855C20.8837 12.0299 20.7784 11.9689 20.7008 11.8469C20.6572 11.7799 20.6146 11.7119 20.572 11.6437L20.572 11.6437C20.4737 11.4864 20.375 11.3287 20.2628 11.1817C20.1353 11.0099 20.0965 10.8269 20.1298 10.6218C20.1846 10.2977 20.1867 9.96976 20.1889 9.6412V9.64117V9.64109C20.1893 9.57073 20.1898 9.50033 20.1908 9.42994C20.1908 9.34124 20.1908 9.25255 20.1575 9.16939C20.1409 9.10841 20.0688 9.09178 20.03 9.15831C19.9912 9.22483 19.9635 9.30244 19.9524 9.37451C19.9205 9.55286 19.8911 9.73122 19.8618 9.90896L19.8618 9.90898C19.8301 10.1014 19.7985 10.293 19.7639 10.4832C19.6919 10.8768 19.7307 11.2482 19.9247 11.603C19.932 11.617 19.9396 11.6311 19.9472 11.6454C20.0093 11.7614 20.0775 11.8886 20.0577 12.0465C19.9525 12.054 19.8728 12.0081 19.7961 11.9639C19.7596 11.9428 19.7238 11.9222 19.6863 11.9079C19.4147 11.8026 19.2705 11.6086 19.2096 11.3258C19.1153 10.8934 18.9656 10.4777 18.7882 10.0675C18.7799 10.0477 18.7728 10.0267 18.7654 10.0053C18.7339 9.91278 18.6995 9.81208 18.5554 9.76256C18.4814 10.0791 18.5599 10.3682 18.637 10.6525C18.6639 10.7516 18.6906 10.85 18.7106 10.9489C18.7238 11.0121 18.7359 11.0759 18.748 11.14C18.8124 11.4804 18.8783 11.8291 19.1209 12.1463C18.7605 12.0798 18.5 11.9634 18.3004 11.7139C18.1064 11.4755 17.8846 11.2538 17.6684 11.0376L17.6386 11.0075C17.5308 10.8984 17.4145 10.7807 17.2471 10.7604C17.2028 10.8579 17.2436 10.92 17.2815 10.9778C17.291 10.9923 17.3003 11.0065 17.3081 11.0209C17.4946 11.3363 17.7274 11.6124 17.9608 11.8894L17.9608 11.8894L17.9609 11.8895C18.0189 11.9582 18.0768 12.027 18.1341 12.0964C18.2394 12.2294 18.3725 12.3181 18.5277 12.3902C18.8659 12.551 19.204 12.7173 19.5422 12.8891C19.5565 12.8969 19.5729 12.9039 19.5897 12.9112C19.6569 12.9403 19.7307 12.9722 19.7085 13.061C19.6795 13.1623 19.5918 13.1419 19.5147 13.1239C19.5032 13.1212 19.492 13.1186 19.4812 13.1164C19.4612 13.1164 19.4413 13.1104 19.4213 13.1044C19.408 13.1005 19.3947 13.0965 19.3814 13.0942C19.0708 13.0387 18.7607 12.981 18.4508 12.9233C17.7708 12.7968 17.0917 12.6704 16.4101 12.5676C16.2114 12.5387 16.0128 12.5095 15.8141 12.4803C14.5268 12.291 13.2379 12.1015 11.9364 11.9911C11.1339 11.9252 10.3287 11.8972 9.52464 11.8693H9.52462C9.17888 11.8573 8.83333 11.8453 8.48828 11.8303C7.98613 11.8082 7.48643 11.8352 6.98592 11.8623L6.98589 11.8623C6.73495 11.8758 6.48381 11.8894 6.23205 11.8968C5.89389 11.9079 5.55019 11.9744 5.21757 12.0465C4.8905 12.113 4.85169 12.2849 5.07898 12.5288C5.28964 12.7561 5.52247 12.9557 5.77747 13.1386C6.58129 13.7096 7.45163 14.1752 8.32197 14.6409C9.49167 15.2729 10.7611 15.5501 12.0694 15.6886L12.0695 15.6886C12.3633 15.7219 12.6571 15.7552 12.9619 15.7274C13.5496 15.6776 14.0374 15.417 14.5142 15.101C14.9687 14.8017 15.4676 14.6575 16.0109 14.6187C16.5109 14.5827 17.0145 14.532 17.5158 14.4816L17.5159 14.4816C17.6316 14.4699 17.7471 14.4583 17.8625 14.4469L18.6219 14.372L19.3814 14.2972L19.3929 14.2963C19.5334 14.2854 19.6771 14.2742 19.7473 14.4469C19.8249 14.652 19.9025 14.8571 19.9801 15.0567C19.9727 15.0622 19.9666 15.0671 19.9614 15.0712C19.9512 15.0795 19.945 15.0844 19.9413 15.0844C19.9253 15.0817 19.9092 15.0794 19.8933 15.077C19.843 15.0697 19.7936 15.0624 19.7473 15.0456C19.3482 14.8737 18.9656 14.9624 18.5831 15.0899C18.3337 15.1786 18.1008 15.3117 17.8791 15.4558C17.2801 15.8378 16.7534 16.3081 16.2272 16.7779L16.2265 16.7785C16.1344 16.8607 16.0424 16.9429 15.9499 17.0246C14.6583 18.1777 13.6327 19.547 12.7624 21.0327C11.9918 22.352 11.2878 23.7047 10.678 25.1016C10.6725 25.1138 10.6667 25.126 10.6609 25.1382C10.6379 25.187 10.6148 25.2358 10.6059 25.2846C10.5838 25.3733 10.6336 25.4065 10.7168 25.3844C10.7421 25.378 10.7637 25.3663 10.7859 25.3543C10.8027 25.3453 10.8197 25.3361 10.8388 25.3289C12.2856 24.7136 13.6771 23.9818 15.0408 23.1946C15.9444 22.6736 16.8203 22.1136 17.5908 21.4096C18.4002 20.6723 19.1708 19.8962 19.8859 19.0591C20.2573 18.6212 20.6121 18.1611 20.8449 17.6289C21.0445 17.1743 21.1664 16.7087 20.978 16.2153C20.9685 16.1933 20.9662 16.1695 20.963 16.1359C20.9605 16.1102 20.9574 16.0787 20.9502 16.0379C21.1144 16.0692 21.24 16.1307 21.36 16.1896L21.3601 16.1896C21.4103 16.2143 21.4595 16.2384 21.5101 16.2596C21.7548 16.3575 21.7542 16.3647 21.7331 16.6055L21.7319 16.62L21.7085 16.8551L21.7084 16.856C21.622 17.7245 21.536 18.589 21.4547 19.4583C21.4354 19.6611 21.4213 19.8305 21.4093 19.9754C21.3785 20.346 21.3611 20.5561 21.3024 20.7538C21.2257 21.0124 21.0784 21.25 20.7385 21.7982C20.7123 21.8405 20.685 21.8846 20.6564 21.9307C20.407 22.3354 20.3127 22.7622 20.3072 23.2224C20.3016 24.0484 20.4569 24.8466 20.6398 25.6449C20.734 26.044 20.8449 26.4321 21.0057 26.8146C21.4048 27.7404 21.9093 28.6107 22.4304 29.4755C22.6909 29.9135 22.9737 30.3348 23.3229 30.7117C23.3495 30.7395 23.3757 30.7708 23.4023 30.8026L23.4023 30.8026C23.5087 30.9298 23.6223 31.0654 23.7996 31.0166C23.959 30.9736 23.9845 30.8133 24.0088 30.6607V30.6607C24.0157 30.617 24.0226 30.5739 24.0325 30.5343C24.1119 30.2259 24.1283 29.9096 24.1448 29.5921C24.1467 29.5554 24.1486 29.5187 24.1506 29.482C24.1518 29.4595 24.1531 29.437 24.1544 29.4145C24.1608 29.3043 24.1676 29.1939 24.1745 29.0834V29.0834C24.2092 28.5216 24.2441 27.9572 24.221 27.3967C24.2116 27.1709 24.2029 26.9444 24.1942 26.7177L24.1941 26.7161C24.177 26.27 24.1598 25.8232 24.1378 25.3788C24.0768 24.0761 23.9382 22.7789 23.7608 21.4872C23.5834 20.2399 23.3839 18.9982 23.1455 17.7619C23.0915 17.4886 23.0423 17.2129 22.9931 16.9378L22.9931 16.9378C22.9665 16.789 22.9399 16.6404 22.9127 16.4925C22.9101 16.4795 22.9067 16.4659 22.9032 16.4522C22.8845 16.378 22.8643 16.2979 22.9626 16.2652C23.0584 16.2316 23.0962 16.3141 23.1298 16.3872C23.1351 16.3986 23.1402 16.4099 23.1455 16.4204L23.1455 16.4204C23.2342 16.5978 23.3229 16.7752 23.395 16.9637C23.5779 17.457 23.8662 17.8617 24.2986 18.1611C24.4039 18.2331 24.5037 18.3121 24.6035 18.3911C24.7032 18.4701 24.803 18.5491 24.9084 18.6212C24.9271 18.6341 24.9471 18.6512 24.9679 18.669L24.9679 18.669C25.0456 18.7354 25.1346 18.8116 25.2133 18.7154C25.294 18.6196 25.1865 18.5146 25.1039 18.4338L25.0802 18.4105C24.8141 18.1444 24.5425 17.8839 24.2598 17.6344C24.0546 17.4515 23.9937 17.2187 23.9271 16.9082C24.1558 17.0855 24.3844 17.1332 24.6097 17.1803C24.6521 17.1891 24.6944 17.1979 24.7365 17.2076C24.9971 17.2686 25.2576 17.324 25.5182 17.3683C25.5822 17.3806 25.6459 17.3982 25.71 17.4159C25.9064 17.4703 26.1059 17.5255 26.3275 17.4293C26.2391 17.2786 26.1069 17.2351 25.9811 17.1937L25.9561 17.1854C25.5625 17.0468 25.1634 16.9082 24.7587 16.7863C24.2986 16.6477 24.0879 16.4204 24.0158 15.9159C24.146 15.9658 24.2762 16.0143 24.4064 16.0627L24.4067 16.0628L24.4069 16.0629C24.5371 16.1114 24.6673 16.1599 24.7975 16.2097C24.9416 16.2652 25.0913 16.304 25.2521 16.2818C25.7454 16.2208 26.2388 16.1543 26.7267 16.0601C26.7932 16.049 26.8541 16.0268 26.9151 16.0046L26.9151 16.0046C26.9484 15.9935 26.9761 15.9658 26.965 15.927C26.9539 15.8993 26.9318 15.8605 26.9096 15.8549C26.8375 15.8328 26.7599 15.8106 26.6823 15.8051C26.4717 15.7995 26.261 15.8051 26.0503 15.8272C25.4516 15.9011 24.9047 15.7736 24.4094 15.4447L24.4094 15.4447C24.3651 15.4115 24.3207 15.3782 24.2708 15.356C24.0879 15.2562 24.0325 15.1177 24.0824 14.9125C24.1489 14.6298 24.1378 14.3416 24.0768 14.0588C24.0735 14.0424 24.0692 14.0258 24.0648 14.0089C24.0468 13.9404 24.0279 13.8684 24.0768 13.7927C24.1555 13.7849 24.2259 13.8133 24.2977 13.8424L24.2977 13.8424C24.3271 13.8543 24.3567 13.8662 24.3873 13.8759C25.0858 14.081 25.8064 13.8593 26.1557 13.3049C26.2665 13.1331 26.3885 12.9889 26.5603 12.878C27.0205 12.5842 26.9096 11.8968 26.5326 11.664C26.515 11.6537 26.4947 11.6458 26.474 11.6377C26.4165 11.6153 26.3564 11.5918 26.3441 11.5143C26.3872 11.4641 26.4418 11.4441 26.496 11.4242C26.5256 11.4133 26.5551 11.4025 26.5825 11.3868C27.1424 11.0708 27.6968 11.0653 28.2401 11.4312C28.3786 11.5254 28.5283 11.5975 28.678 11.6695C28.7445 11.7028 28.811 11.6806 28.8554 11.6252C28.9053 11.5642 28.8831 11.4977 28.8277 11.4478L28.8055 11.4644ZM47.7926 10.0837C48.8182 10.1502 49.8438 10.2666 50.8084 10.6713V10.6657C51.8894 11.1148 52.4881 11.9186 52.6599 13.0606C52.7209 13.4763 52.7431 13.8921 52.7431 14.3134V18.0276H52.7375V22.0079C52.7375 22.5401 52.6599 23.0667 52.5047 23.5767C52.294 24.2697 51.8339 24.7631 51.2241 25.1234C50.5423 25.5225 49.7828 25.6833 49.0122 25.7831C48.153 25.894 47.2937 25.9826 46.4289 25.9438L46.1891 25.9332C45.1646 25.8884 44.134 25.8433 43.1416 25.5503C42.371 25.3174 41.6504 24.9848 41.1736 24.2808C40.78 23.6987 40.6581 23.0501 40.6082 22.3682C40.5527 21.5422 40.5527 20.7107 40.5527 19.8847V15.0119C40.5527 14.3689 40.586 13.7313 40.6691 13.0938C40.8244 11.8687 41.5007 11.0538 42.6427 10.6103C43.5075 10.2721 44.4221 10.1502 45.3368 10.0837C46.1517 10.0282 46.9777 10.0338 47.7926 10.0837ZM50.5145 23.2275C50.6753 22.9226 50.7806 22.6011 50.7806 22.2463V18.0387H50.7917V14.258C50.7917 14.0584 50.7917 13.8588 50.7751 13.6593C50.703 12.8056 50.3039 12.2069 49.4613 11.9297C49.0898 11.8077 48.7184 11.7301 48.3304 11.6802C47.8335 11.6145 47.3391 11.6185 46.8438 11.6226C46.5876 11.6247 46.3312 11.6268 46.0741 11.6192C45.4255 11.6026 44.7936 11.6858 44.1671 11.8354C43.2303 12.0627 42.626 12.5783 42.5595 13.7424C42.5373 14.1526 42.5373 14.5572 42.5373 14.9673V14.9676C42.554 17.0242 42.554 19.0753 42.5373 21.132C42.5318 21.5367 42.5373 21.9469 42.5651 22.3516C42.626 23.2053 43.0529 23.7708 43.8623 24.059C44.3279 24.2253 44.8102 24.2808 45.2925 24.3362C46.2183 24.4415 47.1496 24.3916 48.0754 24.3251C48.6741 24.2863 49.2506 24.1588 49.7994 23.8927C50.1154 23.7375 50.3538 23.5268 50.5145 23.2275ZM85.3051 10.2061C86.0868 10.3225 86.8518 10.4999 87.5336 10.9212L87.5225 10.9268C88.2321 11.3647 88.6479 12.0078 88.8031 12.8171C88.9084 13.3715 88.9472 13.9314 88.9472 14.4968V25.2403C88.9472 25.6172 88.7551 25.8057 88.3707 25.8057H87.5059C87.0236 25.8002 86.9904 25.7725 86.9904 25.3013V20.5282V20.5281C86.9904 20.2889 86.9904 20.1697 86.9308 20.1104C86.8716 20.0515 86.7538 20.0515 86.5192 20.0515H79.379H79.1795C78.8635 20.057 78.8468 20.0737 78.8468 20.3952V25.268C78.8468 25.7946 78.8413 25.8002 78.3091 25.8002C78.1982 25.8002 78.0874 25.8008 77.9765 25.8014C77.7548 25.8026 77.533 25.8039 77.3113 25.8002C76.9454 25.7946 76.8955 25.7447 76.8955 25.3678V19.4971V14.0256C76.8955 13.5821 76.9565 13.1442 77.0507 12.7118C77.2891 11.6419 77.9654 10.9766 78.9633 10.5941C79.817 10.2671 80.7206 10.1396 81.6242 10.0841C82.8549 10.0121 84.0855 10.0287 85.3051 10.2061ZM86.9959 18.1445V17.9782L87.0125 17.9671V13.9258C87.0181 13.6597 86.9626 13.4047 86.9017 13.1442C86.7797 12.6508 86.4859 12.3016 86.0369 12.0687C85.5657 11.8248 85.0612 11.7361 84.5401 11.6751C83.9165 11.6045 83.2961 11.6086 82.6741 11.6128C82.4666 11.6142 82.259 11.6155 82.051 11.6142C81.7526 11.6097 81.4613 11.6482 81.1715 11.6865C81.1006 11.6959 81.0298 11.7052 80.9589 11.7139C80.6042 11.7583 80.266 11.8581 79.9389 12.0022C79.5176 12.1907 79.1905 12.479 79.0409 12.928C78.9245 13.2828 78.8524 13.6487 78.8524 14.0312V17.9117C78.8524 18.0004 78.8524 18.0891 78.8579 18.1778C78.8635 18.2831 78.9189 18.3441 79.0242 18.3496C79.124 18.3552 79.2238 18.3552 79.3236 18.3552H82.9103H86.5302H86.7963C86.9349 18.3496 86.9959 18.2775 86.9959 18.1445ZM73.0204 10.2189C73.1978 10.2164 73.3752 10.2139 73.5526 10.2213L73.5692 10.2324C73.863 10.2435 73.9129 10.3045 73.9295 10.5928V10.9919C73.9295 12.2041 73.9308 13.4163 73.932 14.6285C73.9345 17.0529 73.9369 19.4773 73.9295 21.9017C73.924 22.5281 73.8575 23.1545 73.6468 23.7588C73.3807 24.5127 72.8873 25.0393 72.1722 25.383C71.6677 25.6214 71.13 25.7434 70.5812 25.8265C69.5556 25.9873 68.5301 26.0205 67.5101 25.821C66.4956 25.6214 65.5975 25.1945 64.9378 24.363L64.9352 24.3595L64.9305 24.353C64.9257 24.3463 64.9211 24.3393 64.9165 24.3322C64.887 24.2874 64.8544 24.2378 64.7604 24.2244C64.5609 24.5016 64.328 24.7788 64.0287 24.995C63.6573 25.2666 63.2637 25.4883 62.8257 25.6214C61.8722 25.9097 60.9021 26.0261 59.9043 25.9207C59.8004 25.9099 59.6967 25.8999 59.5932 25.89C59.1667 25.8489 58.7437 25.8082 58.3243 25.7101C57.9862 25.6325 57.6702 25.5105 57.3598 25.3553C56.4783 24.9174 55.9905 24.1912 55.802 23.2487C55.6856 22.6944 55.6579 22.1289 55.6579 21.569C55.6523 17.9214 55.6523 14.2737 55.6523 10.626V10.4597C55.6523 10.31 55.73 10.238 55.8796 10.238H57.3764C57.5593 10.238 57.6369 10.3377 57.6369 10.5096V10.809V21.1533C57.6369 21.2797 57.6348 21.4056 57.6327 21.5313C57.628 21.8135 57.6233 22.0946 57.6425 22.3784C57.709 23.4095 58.2024 24.0304 59.2113 24.241C60.2646 24.4628 61.3234 24.4462 62.3712 24.1745C63.1639 23.9694 63.6129 23.4483 63.7515 22.65C63.8125 22.2842 63.8125 21.9238 63.8125 21.558V10.8145C63.8125 10.4228 64.0084 10.2269 64.4001 10.2269C64.5147 10.2269 64.6292 10.2256 64.7438 10.2244H64.7439C64.973 10.2219 65.2021 10.2195 65.4312 10.2269C65.7139 10.238 65.7527 10.2823 65.7638 10.565V10.8976V21.7742C65.7583 22.1511 65.8082 22.5225 65.8913 22.8884C66.0521 23.6035 66.5399 24.0082 67.2162 24.1856C68.2363 24.4517 69.284 24.4517 70.3096 24.2355C71.2686 24.0359 71.7842 23.5204 71.9228 22.578C71.9616 22.2897 71.9837 22.007 71.9837 21.7187C71.9837 20.525 71.9831 19.3313 71.9825 18.1376V18.1265C71.9813 15.7428 71.98 13.359 71.9837 10.9753C71.9837 10.8652 71.9808 10.7712 71.9783 10.6909V10.6906V10.6903V10.6901V10.6899L71.9782 10.6893C71.9718 10.4836 71.9682 10.3681 72.0237 10.3034C72.0949 10.2204 72.2631 10.2206 72.6469 10.2212L72.7543 10.2213C72.843 10.2213 72.9317 10.2201 73.0204 10.2189ZM102.477 18.2096C102.011 17.9047 101.501 17.7384 100.975 17.622C100.543 17.5255 100.105 17.4576 99.6651 17.3895L99.665 17.3895C99.5233 17.3676 99.3815 17.3456 99.2397 17.3226L99.239 17.3225C98.2026 17.1562 97.1661 16.99 96.1297 16.8181C96.0605 16.807 95.9913 16.7963 95.9221 16.7856C95.5426 16.7269 95.165 16.6684 94.7992 16.5465C94.1895 16.3414 93.8236 15.909 93.7681 15.2881C93.7016 14.6284 93.6961 13.9632 93.8236 13.3035C93.8956 12.9266 94.0675 12.5995 94.3613 12.3334C94.766 11.9675 95.2704 11.84 95.786 11.7513C96.9945 11.5517 98.2141 11.5739 99.4281 11.6903C99.7552 11.7236 100.088 11.7735 100.404 11.8733C100.842 12.0119 101.252 12.1948 101.535 12.5829C101.795 12.9376 101.856 13.3534 101.889 13.7747C101.902 13.9268 101.9 14.0788 101.899 14.2298V14.2299V14.23V14.2301V14.2301V14.2302C101.897 14.3434 101.896 14.4559 101.901 14.5675C101.906 14.8058 101.945 14.8502 102.167 14.8502C102.484 14.8539 102.802 14.8526 103.12 14.8514C103.279 14.8508 103.438 14.8502 103.597 14.8502C103.758 14.8502 103.841 14.7781 103.846 14.6118C103.869 13.8579 103.846 13.1095 103.608 12.3833C103.464 11.9564 103.242 11.5795 102.904 11.2746C102.339 10.759 101.651 10.4929 100.919 10.3322C100.049 10.1381 99.1676 10.0882 98.2806 10.0605C97.1719 10.0217 96.0687 10.1049 94.9766 10.2878C94.3779 10.3876 93.818 10.5816 93.2969 10.8754C92.4987 11.3245 92.0829 12.0285 91.9221 12.9155C91.8078 13.5466 91.8094 14.1778 91.8109 14.809V14.8091L91.8111 14.9116L91.8113 15.0276C91.8168 16.5133 92.5984 17.5998 94.001 18.0987C94.4223 18.2484 94.8547 18.3315 95.2926 18.3981C96.6508 18.6032 98.0034 18.8194 99.3561 19.0356C99.4134 19.045 99.4708 19.0542 99.5281 19.0634C99.9417 19.1298 100.353 19.1958 100.748 19.3516C101.368 19.601 101.801 20.0334 101.873 20.7097C101.945 21.4138 101.962 22.1234 101.812 22.8218C101.712 23.282 101.452 23.6423 101.019 23.8751C100.509 24.1468 99.9492 24.2299 99.3949 24.3075C98.6138 24.4184 97.8282 24.3918 97.0421 24.3653L96.806 24.3574C96.2628 24.3408 95.725 24.2687 95.2039 24.108C94.4999 23.8918 93.9954 23.476 93.8457 22.7165C93.8014 22.4892 93.7571 22.2619 93.7571 22.0291V20.804C93.7571 20.4825 93.7293 20.4603 93.4189 20.4547H92.1882C91.8722 20.4547 91.8223 20.4991 91.8223 20.8206C91.8223 20.9588 91.8207 21.0967 91.8191 21.2344C91.8133 21.7154 91.8076 22.1938 91.8722 22.6722C91.9498 23.2432 92.0607 23.8031 92.4044 24.2909C92.9643 25.0836 93.8014 25.4329 94.6995 25.6324C95.725 25.8653 96.7783 25.9429 97.7817 25.9152C98.8793 25.9373 99.9104 25.8542 100.936 25.638C101.479 25.5216 102.006 25.3497 102.477 25.0448C103.165 24.6013 103.569 23.9749 103.741 23.1766C103.93 22.3007 103.891 21.4138 103.852 20.5323C103.808 19.54 103.364 18.7418 102.51 18.1763L102.477 18.2096ZM118.788 14.8069C118.793 14.3967 118.782 13.992 118.721 13.5818C118.588 12.6671 118.261 11.8522 117.524 11.2535C117.064 10.8765 116.526 10.6437 115.955 10.4885C115.234 10.2945 114.491 10.2335 113.754 10.2279C112.237 10.2124 110.717 10.2159 109.198 10.2194H109.198H109.198H109.197H109.197H109.196H109.195C108.545 10.2209 107.895 10.2224 107.246 10.2224C106.752 10.2224 106.736 10.239 106.736 10.7213V18.0167V25.0792V25.4783C106.747 25.75 106.791 25.8054 107.074 25.8109C107.34 25.8146 107.606 25.8134 107.872 25.8122C108.005 25.8116 108.138 25.8109 108.271 25.8109C108.659 25.8109 108.687 25.7777 108.687 25.3952V21.814C108.687 21.3761 108.687 21.3761 109.131 21.3705H109.197C109.712 21.3672 110.227 21.3674 110.742 21.3676C111.92 21.3681 113.099 21.3686 114.275 21.3262C115.057 21.2985 115.816 21.1765 116.542 20.8882C117.873 20.3616 118.549 19.3527 118.716 17.9668C118.801 17.2336 118.791 16.5003 118.781 15.7652V15.7648V15.7644V15.7641C118.777 15.4491 118.773 15.1338 118.776 14.818L118.788 14.8069ZM116.836 17.1962C116.836 17.5621 116.764 17.9169 116.648 18.2661C116.459 18.8427 116.071 19.2307 115.534 19.4691C115.14 19.6465 114.719 19.7573 114.281 19.7573C113.409 19.7573 112.535 19.7587 111.662 19.7601L111.659 19.7601C110.784 19.7615 109.91 19.7629 109.036 19.7629C108.704 19.7629 108.687 19.7407 108.687 19.397V15.7881V12.2403V12.0074C108.687 11.891 108.754 11.8189 108.87 11.8134C108.959 11.8079 109.048 11.8079 109.136 11.8079H113.948C114.325 11.8079 114.696 11.8356 115.068 11.9298C116.021 12.1793 116.598 12.7724 116.764 13.7481C116.803 13.9643 116.836 14.1861 116.836 14.4078V17.1907V17.1962ZM119.592 30.8833C120.568 30.4731 121.183 29.5307 121.183 28.4164V28.422C121.194 28.0838 121.122 27.729 120.972 27.3909C120.579 26.4984 119.908 25.9495 118.932 25.8498C118.001 25.75 117.241 26.1269 116.704 26.8919C116.033 27.8399 116.055 28.8322 116.582 29.83C117.131 30.8667 118.505 31.3434 119.592 30.8833ZM120.701 28.3V28.4331C120.701 29.1482 120.473 29.7524 119.886 30.1959C118.843 30.9886 117.131 30.5618 116.742 29.0262C116.632 28.5883 116.665 28.1448 116.798 27.7179C117.114 26.709 118.001 26.1657 119.06 26.332C119.985 26.4762 120.684 27.3188 120.701 28.3ZM117.647 28.4164V27.2245C117.647 26.9196 117.686 26.8919 117.997 26.8863C118.241 26.8863 118.485 26.8863 118.723 26.8974C118.983 26.914 119.222 26.9861 119.421 27.1635C119.76 27.4739 119.815 27.9285 119.538 28.2889C119.438 28.4164 119.416 28.4995 119.527 28.627C119.654 28.7711 119.693 28.9596 119.715 29.1481L119.719 29.1905C119.734 29.3641 119.749 29.5337 119.76 29.708C119.771 29.8965 119.732 29.9408 119.538 29.9575C119.211 29.9852 119.122 29.9131 119.111 29.5805V29.5804C119.111 29.4474 119.111 29.3144 119.089 29.1869C119.039 28.8876 118.623 28.7046 118.357 28.8543C118.274 28.8986 118.268 28.9763 118.268 29.0539V29.6138C118.263 29.9076 118.213 29.963 117.958 29.9575C117.708 29.9575 117.659 29.9076 117.659 29.5971V28.4053L117.647 28.4164ZM118.263 27.8509C118.263 28.1946 118.307 28.2334 118.623 28.2112C118.723 28.2057 118.823 28.1835 118.911 28.1392C119.083 28.0505 119.144 27.8565 119.05 27.6901C118.967 27.5405 118.656 27.4518 118.418 27.5128C118.261 27.551 118.263 27.6609 118.265 27.7626C118.266 27.7935 118.267 27.8237 118.263 27.8509Z" fill="#030C16"/>
</svg>
